<svg id="Capa_1" enable-background="new 0 0 512 512" height="512" viewBox="0 0 512 512" width="512" xmlns="http://www.w3.org/2000/svg"><g><path d="m434.347 24.756h-43.386l-4.336 3.394v80.187l2.053 6.488 45.415 40.595 3.568-2.479v-124.791z" fill="#ffe07d"/><path d="m412.144 24.756h-21.183l-4.336 3.394v80.187l2.053 6.488 23.466 20.975z" fill="#ffd064"/><path d="m430.372 184.005-174.372-151.553-176.096 152.907-5.565 14.757v304.272h363.322v-304.272z" fill="#90d8f9"/><path d="m115.61 241.716c0-19.907 8.815-38.174 23.045-50.53l150.061-130.3-32.716-28.434-176.096 152.907-5.565 14.758v304.272h41.271z" fill="#75cef9"/><path d="m447.29 0h-70.292c-3.383 0-6.125 2.742-6.125 6.125v15.899c0 3.383 2.742 6.125 6.125 6.125h70.292c3.383 0 6.125-2.742 6.125-6.125v-15.898c0-3.384-2.743-6.126-6.125-6.126z" fill="#fff0af"/><path d="m407.407 22.025v-15.899c0-3.383 2.742-6.125 6.125-6.125h-36.535c-3.383 0-6.125 2.742-6.125 6.125v15.899c0 3.383 2.742 6.125 6.125 6.125h36.535c-3.382 0-6.125-2.742-6.125-6.125z" fill="#ffe07d"/><path d="m479.989 189.935-212.301-185.547c-6.694-5.85-16.682-5.85-23.376 0l-212.301 185.547c-7.386 6.455-8.14 17.675-1.685 25.06 6.456 7.386 17.676 8.139 25.061 1.685l197.804-172.877c1.609-1.406 4.01-1.406 5.619 0l197.803 172.877c7.386 6.454 18.604 5.701 25.061-1.685 6.454-7.386 5.7-18.606-1.685-25.06z" fill="#dd636e"/><g><path d="m47.234 200.083 212.301-185.547c4.277-3.738 9.897-5.075 15.146-4.036l-6.994-6.113c-6.694-5.85-16.682-5.85-23.376 0l-212.3 185.547c-7.386 6.455-8.14 17.675-1.685 25.06 3.314 3.792 7.885 5.822 12.547 6.04-3.308-6.997-1.755-15.605 4.361-20.951z" fill="#da4a54"/></g><path d="m363.494 207.015h-214.987c-13.021 0-23.577 10.556-23.577 23.577v150.994c0 13.021 10.556 23.577 23.577 23.577l6.869 4.916h204.944l3.174-4.916c13.021 0 23.577-10.556 23.577-23.577v-150.994c0-13.021-10.556-23.577-23.577-23.577z" fill="#3f6d8e"/><path d="m157.645 381.586v-150.994c0-13.021 10.556-23.577 23.577-23.577h-32.715c-13.021 0-23.577 10.556-23.577 23.577v150.994c0 13.021 10.556 23.577 23.577 23.577l6.869 4.916h32.715l-6.869-4.916c-13.021 0-23.577-10.556-23.577-23.577z" fill="#365e7d"/><path d="m351.358 237.461h-190.716c-2.909 0-5.267 2.358-5.267 5.267v126.722c0 2.909 2.358 5.267 5.267 5.267h190.716c2.909 0 5.267-2.358 5.267-5.267v-126.722c0-2.909-2.358-5.267-5.267-5.267z" fill="#fff0af"/><path d="m188.091 369.45v-126.722c0-2.909 2.358-5.267 5.267-5.267h-32.716c-2.909 0-5.267 2.358-5.267 5.267v126.722c0 2.909 2.358 5.267 5.267 5.267h32.716c-2.909 0-5.267-2.358-5.267-5.267z" fill="#ffe07d"/><g><path d="m320.857 355.081h-129.714c-4.204 0-7.612-3.408-7.612-7.612s3.408-7.612 7.612-7.612h129.715c4.204 0 7.612 3.408 7.612 7.612s-3.409 7.612-7.613 7.612z" fill="#ffc250"/></g><g><path d="m320.857 327.494h-129.714c-4.204 0-7.612-3.408-7.612-7.612s3.408-7.612 7.612-7.612h129.715c4.204 0 7.612 3.408 7.612 7.612s-3.409 7.612-7.613 7.612z" fill="#ffc250"/></g><g><path d="m320.857 299.907h-129.714c-4.204 0-7.612-3.408-7.612-7.612s3.408-7.612 7.612-7.612h129.715c4.204 0 7.612 3.408 7.612 7.612s-3.409 7.612-7.613 7.612z" fill="#ffc250"/></g><g><path d="m256 272.32h-64.857c-4.204 0-7.612-3.408-7.612-7.612s3.408-7.612 7.612-7.612h64.857c4.204 0 7.612 3.408 7.612 7.612s-3.408 7.612-7.612 7.612z" fill="#ffc250"/></g><g><path d="m459.481 512h-406.962c-4.204 0-7.612-3.408-7.612-7.612s3.408-7.612 7.612-7.612h406.962c4.204 0 7.612 3.408 7.612 7.612s-3.408 7.612-7.612 7.612z" fill="#b3e59f"/></g><path d="m394.926 405.163h-277.852c-5.291 0-9.581 4.29-9.581 9.581 0 15.337 12.433 27.77 27.77 27.77h241.474c15.337 0 27.77-12.433 27.77-27.77 0-5.291-4.29-9.581-9.581-9.581z" fill="#365e7d"/><path d="m160.368 414.744c0-5.292 4.29-9.581 9.582-9.581h-52.874c-5.291 0-9.582 4.29-9.582 9.581 0 15.337 12.433 27.77 27.77 27.77h52.874c-15.337 0-27.77-12.433-27.77-27.77z" fill="#294b64"/></g></svg>