<svg id="Layer_1" enable-background="new 0 0 512 512" height="512" viewBox="0 0 512 512" width="512" xmlns="http://www.w3.org/2000/svg"><g><path d="m426.667 409.6h69.333c8.836 0 16-7.163 16-16v-18.667c0-4.418-3.582-8-8-8h-77.333z" fill="#365e7d"/><path d="m503.759 366.933h-23.694c4.552 0 8.241 3.69 8.241 8.241v17.942c0 9.103-7.38 16.483-16.483 16.483h23.694c9.103 0 16.483-7.38 16.483-16.483v-17.942c0-4.551-3.69-8.241-8.241-8.241z" fill="#2b4d66"/><path d="m84.999 201.4v-13.669c-.967-6.532-3.825-12.676-8.24-17.688-15.888-18.04-25.528-41.714-25.528-67.643 0-56.787 46.225-102.778 103.101-102.398h169.234c56.875-.381 103.101 45.61 103.101 102.398 0 25.929-9.64 49.603-25.529 67.643-4.415 5.012-7.273 11.157-8.24 17.689v13.668z" fill="#ffd597"/><path d="m153.611 34.133c-18.229.004-35.364 7.104-48.253 19.994-12.893 12.894-19.994 30.037-19.994 48.273 0 16.618 6.041 32.629 17.01 45.083 9.94 11.285 15.859 25.421 16.942 40.249v13.668h239.187l.078-13.667c1.083-14.829 7.003-28.965 16.942-40.25 10.97-12.455 17.01-28.465 17.01-45.083 0-37.642-30.624-68.267-68.267-68.267z" fill="#fff2e3"/><g><g><path d="m307.2 161.327c-13.671 0-24.793-11.122-24.793-24.793 0-4.267 3.459-7.726 7.726-7.726s7.726 3.459 7.726 7.726c0 5.15 4.19 9.341 9.34 9.341s9.34-4.19 9.34-9.341c0-4.267 3.459-7.726 7.726-7.726 4.268 0 7.726 3.459 7.726 7.726.002 13.67-11.12 24.793-24.791 24.793z" fill="#fee7c9"/></g></g><g><g><path d="m170.667 127.193c-13.671 0-24.794-11.122-24.794-24.793 0-4.267 3.459-7.726 7.726-7.726 4.268 0 7.726 3.459 7.726 7.726 0 5.15 4.19 9.341 9.341 9.341 5.15 0 9.34-4.19 9.34-9.341 0-4.267 3.459-7.726 7.726-7.726 4.268 0 7.726 3.459 7.726 7.726.002 13.671-11.12 24.793-24.791 24.793z" fill="#fee7c9"/></g></g><path d="m323.566.002h-23.694c56.876-.38 103.101 45.611 103.101 102.398 0 25.929-9.64 49.603-25.529 67.643-4.414 5.012-7.273 11.157-8.24 17.689v13.668h23.694v-13.668c.966-6.532 3.825-12.677 8.24-17.689 15.889-18.04 25.529-41.714 25.529-67.643 0-56.787-46.226-102.778-103.101-102.398z" fill="#fcc16d"/><path d="m324.267 34.134h-23.694c37.642 0 68.267 30.624 68.267 68.267 0 16.618-6.041 32.629-17.01 45.083-9.94 11.286-15.859 25.422-16.942 40.25l-.078 13.667h23.694l.078-13.667c1.083-14.829 7.003-28.964 16.942-40.25 10.97-12.455 17.01-28.465 17.01-45.083-.001-37.643-30.625-68.267-68.267-68.267z" fill="#fee7c9"/><path d="m72.008 512h-37.875c-9.426 0-17.067-7.641-17.067-17.067v-28.776h76.8v11.71l-5.301 21.206c-1.899 7.597-8.725 12.927-16.557 12.927z" fill="#365e7d"/><path d="m405.859 512h37.875c9.426 0 17.067-7.641 17.067-17.067v-28.776h-76.801v11.71l5.301 21.206c1.9 7.597 8.726 12.927 16.558 12.927z" fill="#365e7d"/><path d="m460.8 455.512h-443.733v-235.779c0-17.673 14.327-32 32-32h379.733c17.673 0 32 14.327 32 32z" fill="#e2d8ec"/><circle cx="76.8" cy="384" fill="#ffac52" r="25.6"/><path d="m51.202 221.824h.005z"/><path d="m51.225 221.846h.006z"/><g><path d="m426.667 263.726c-4.268 0-7.726-3.459-7.726-7.726v-17.067c0-5.15-4.19-9.34-9.341-9.34h-341.333c-5.15 0-9.34 4.19-9.34 9.34v17.067c0 4.267-3.459 7.726-7.726 7.726-4.268 0-7.726-3.459-7.726-7.726v-17.067c0-13.671 11.122-24.793 24.793-24.793h341.332c13.671 0 24.794 11.122 24.794 24.793v17.067c-.001 4.267-3.459 7.726-7.727 7.726z" fill="#d5c6e4"/></g><path d="m437.106 466.157v28.776c0 9.426-7.641 17.067-17.067 17.067h23.694c9.426 0 17.067-7.641 17.067-17.067v-28.776z" fill="#2b4d66"/><path d="m427.834 187.733h-23.694c18.207 0 32.966 14.759 32.966 32.966v234.813h23.694v-234.813c0-18.206-14.759-32.966-32.966-32.966z" fill="#d5c6e4"/><path d="m469.867 477.867h-461.867c-4.418 0-8-3.582-8-8v-18.133c0-4.418 3.582-8 8-8h461.867c4.418 0 8 3.582 8 8v18.133c0 4.418-3.582 8-8 8z" fill="#4a80aa"/><path d="m469.625 443.733h-23.694c4.552 0 8.241 3.69 8.241 8.241v17.65c0 4.552-3.69 8.242-8.241 8.242h23.694c4.552 0 8.242-3.69 8.242-8.242v-17.65c0-4.551-3.69-8.241-8.242-8.241z" fill="#407093"/><path d="m76.8 358.4c-4.276 0-8.304 1.054-11.847 2.908 8.172 4.276 13.753 12.83 13.753 22.692s-5.581 18.417-13.753 22.692c3.543 1.854 7.571 2.908 11.847 2.908 14.138 0 25.6-11.462 25.6-25.6s-11.462-25.6-25.6-25.6z" fill="#f29e4c"/></g><g><g><path d="m57.202 222.825h.005z"/><path d="m57.224 222.846h.006z"/></g></g></svg>